<svg xmlns="http://www.w3.org/2000/svg" xmlns:xlink="http://www.w3.org/1999/xlink" width="1920" zoomAndPan="magnify" viewBox="0 0 1440 809.999993" height="1080" preserveAspectRatio="xMidYMid meet" version="1.0"><defs><g/></defs><g fill="#ffffff" fill-opacity="1"><g transform="translate(315.864518, 448.067714)"><g><path d="M 60.046875 -88.0625 L 60.046875 -26.234375 C 60.046875 -17.660156 57.5625 -10.992188 52.59375 -6.234375 C 47.632812 -1.484375 40.992188 0.890625 32.671875 0.890625 C 24.265625 0.890625 17.472656 -1.546875 12.296875 -6.421875 C 7.128906 -11.304688 4.546875 -18.125 4.546875 -26.875 L 22.203125 -26.875 C 22.285156 -23.082031 23.1875 -20.132812 24.90625 -18.03125 C 26.632812 -15.9375 29.140625 -14.890625 32.421875 -14.890625 C 35.617188 -14.890625 38.054688 -15.894531 39.734375 -17.90625 C 41.421875 -19.925781 42.265625 -22.703125 42.265625 -26.234375 L 42.265625 -88.0625 Z M 60.046875 -88.0625 "/></g></g></g><g fill="#ffffff" fill-opacity="1"><g transform="translate(387.7709, 448.067714)"><g><path d="M 39.734375 1.140625 C 33.003906 1.140625 26.945312 -0.351562 21.5625 -3.34375 C 16.1875 -6.332031 11.960938 -10.554688 8.890625 -16.015625 C 5.828125 -21.484375 4.296875 -27.789062 4.296875 -34.9375 C 4.296875 -42.09375 5.867188 -48.398438 9.015625 -53.859375 C 12.171875 -59.328125 16.484375 -63.554688 21.953125 -66.546875 C 27.421875 -69.535156 33.519531 -71.03125 40.25 -71.03125 C 46.976562 -71.03125 53.070312 -69.535156 58.53125 -66.546875 C 64 -63.554688 68.3125 -59.328125 71.46875 -53.859375 C 74.625 -48.398438 76.203125 -42.09375 76.203125 -34.9375 C 76.203125 -27.789062 74.582031 -21.484375 71.34375 -16.015625 C 68.101562 -10.554688 63.726562 -6.332031 58.21875 -3.34375 C 52.707031 -0.351562 46.546875 1.140625 39.734375 1.140625 Z M 39.734375 -14.25 C 42.929688 -14.25 45.9375 -15.023438 48.75 -16.578125 C 51.570312 -18.140625 53.820312 -20.476562 55.5 -23.59375 C 57.1875 -26.707031 58.03125 -30.488281 58.03125 -34.9375 C 58.03125 -41.582031 56.285156 -46.691406 52.796875 -50.265625 C 49.304688 -53.847656 45.035156 -55.640625 39.984375 -55.640625 C 34.941406 -55.640625 30.71875 -53.847656 27.3125 -50.265625 C 23.90625 -46.691406 22.203125 -41.582031 22.203125 -34.9375 C 22.203125 -28.300781 23.863281 -23.191406 27.1875 -19.609375 C 30.507812 -16.035156 34.691406 -14.25 39.734375 -14.25 Z M 39.734375 -14.25 "/></g></g></g><g fill="#ffffff" fill-opacity="1"><g transform="translate(468.25559, 448.067714)"><g><path d="M 73.671875 -36.453125 C 73.671875 -33.929688 73.503906 -31.660156 73.171875 -29.640625 L 22.078125 -29.640625 C 22.492188 -24.597656 24.257812 -20.644531 27.375 -17.78125 C 30.488281 -14.925781 34.316406 -13.5 38.859375 -13.5 C 45.421875 -13.5 50.085938 -16.316406 52.859375 -21.953125 L 71.90625 -21.953125 C 69.882812 -15.222656 66.015625 -9.691406 60.296875 -5.359375 C 54.578125 -1.023438 47.554688 1.140625 39.234375 1.140625 C 32.503906 1.140625 26.46875 -0.351562 21.125 -3.34375 C 15.789062 -6.332031 11.628906 -10.554688 8.640625 -16.015625 C 5.648438 -21.484375 4.15625 -27.789062 4.15625 -34.9375 C 4.15625 -42.175781 5.628906 -48.523438 8.578125 -53.984375 C 11.523438 -59.453125 15.644531 -63.660156 20.9375 -66.609375 C 26.238281 -69.554688 32.335938 -71.03125 39.234375 -71.03125 C 45.878906 -71.03125 51.828125 -69.597656 57.078125 -66.734375 C 62.335938 -63.878906 66.414062 -59.820312 69.3125 -54.5625 C 72.21875 -49.300781 73.671875 -43.265625 73.671875 -36.453125 Z M 55.375 -41.5 C 55.289062 -46.039062 53.648438 -49.675781 50.453125 -52.40625 C 47.265625 -55.144531 43.359375 -56.515625 38.734375 -56.515625 C 34.359375 -56.515625 30.675781 -55.1875 27.6875 -52.53125 C 24.707031 -49.882812 22.878906 -46.207031 22.203125 -41.5 Z M 55.375 -41.5 "/></g></g></g><g fill="#ffffff" fill-opacity="1"><g transform="translate(546.091096, 448.067714)"><g/></g></g><g fill="#ffffff" fill-opacity="1"><g transform="translate(576.115157, 448.067714)"><g><path d="M 62.703125 -16.78125 L 27.625 -16.78125 L 21.828125 0 L 3.28125 0 L 34.9375 -88.1875 L 55.515625 -88.1875 L 87.171875 0 L 68.5 0 Z M 57.90625 -30.90625 L 45.15625 -67.75 L 32.421875 -30.90625 Z M 57.90625 -30.90625 "/></g></g></g><g fill="#ffffff" fill-opacity="1"><g transform="translate(666.439674, 448.067714)"><g><path d="M 26.359375 -93.359375 L 26.359375 0 L 8.703125 0 L 8.703125 -93.359375 Z M 26.359375 -93.359375 "/></g></g></g><g fill="#ffffff" fill-opacity="1"><g transform="translate(701.509801, 448.067714)"><g><path d="M 26.359375 -59.671875 C 28.628906 -63.035156 31.757812 -65.769531 35.75 -67.875 C 39.75 -69.976562 44.316406 -71.03125 49.453125 -71.03125 C 55.421875 -71.03125 60.820312 -69.554688 65.65625 -66.609375 C 70.5 -63.660156 74.328125 -59.472656 77.140625 -54.046875 C 79.960938 -48.628906 81.375 -42.347656 81.375 -35.203125 C 81.375 -28.046875 79.960938 -21.710938 77.140625 -16.203125 C 74.328125 -10.703125 70.5 -6.4375 65.65625 -3.40625 C 60.820312 -0.375 55.421875 1.140625 49.453125 1.140625 C 44.234375 1.140625 39.671875 0.109375 35.765625 -1.953125 C 31.859375 -4.015625 28.722656 -6.6875 26.359375 -9.96875 L 26.359375 0 L 8.703125 0 L 8.703125 -93.359375 L 26.359375 -93.359375 Z M 63.328125 -35.203125 C 63.328125 -39.398438 62.460938 -43.035156 60.734375 -46.109375 C 59.015625 -49.179688 56.742188 -51.515625 53.921875 -53.109375 C 51.109375 -54.710938 48.0625 -55.515625 44.78125 -55.515625 C 41.582031 -55.515625 38.578125 -54.691406 35.765625 -53.046875 C 32.953125 -51.410156 30.679688 -49.035156 28.953125 -45.921875 C 27.222656 -42.804688 26.359375 -39.144531 26.359375 -34.9375 C 26.359375 -30.738281 27.222656 -27.082031 28.953125 -23.96875 C 30.679688 -20.851562 32.953125 -18.472656 35.765625 -16.828125 C 38.578125 -15.191406 41.582031 -14.375 44.78125 -14.375 C 48.0625 -14.375 51.109375 -15.210938 53.921875 -16.890625 C 56.742188 -18.578125 59.015625 -20.976562 60.734375 -24.09375 C 62.460938 -27.207031 63.328125 -30.910156 63.328125 -35.203125 Z M 63.328125 -35.203125 "/></g></g></g><g fill="#ffffff" fill-opacity="1"><g transform="translate(787.040558, 448.067714)"><g><path d="M 26.359375 -59.046875 C 28.628906 -62.742188 31.59375 -65.644531 35.25 -67.75 C 38.914062 -69.851562 43.101562 -70.90625 47.8125 -70.90625 L 47.8125 -52.359375 L 43.140625 -52.359375 C 37.585938 -52.359375 33.398438 -51.050781 30.578125 -48.4375 C 27.765625 -45.832031 26.359375 -41.289062 26.359375 -34.8125 L 26.359375 0 L 8.703125 0 L 8.703125 -69.890625 L 26.359375 -69.890625 Z M 26.359375 -59.046875 "/></g></g></g><g fill="#ffffff" fill-opacity="1"><g transform="translate(838.005764, 448.067714)"><g><path d="M 73.671875 -36.453125 C 73.671875 -33.929688 73.503906 -31.660156 73.171875 -29.640625 L 22.078125 -29.640625 C 22.492188 -24.597656 24.257812 -20.644531 27.375 -17.78125 C 30.488281 -14.925781 34.316406 -13.5 38.859375 -13.5 C 45.421875 -13.5 50.085938 -16.316406 52.859375 -21.953125 L 71.90625 -21.953125 C 69.882812 -15.222656 66.015625 -9.691406 60.296875 -5.359375 C 54.578125 -1.023438 47.554688 1.140625 39.234375 1.140625 C 32.503906 1.140625 26.46875 -0.351562 21.125 -3.34375 C 15.789062 -6.332031 11.628906 -10.554688 8.640625 -16.015625 C 5.648438 -21.484375 4.15625 -27.789062 4.15625 -34.9375 C 4.15625 -42.175781 5.628906 -48.523438 8.578125 -53.984375 C 11.523438 -59.453125 15.644531 -63.660156 20.9375 -66.609375 C 26.238281 -69.554688 32.335938 -71.03125 39.234375 -71.03125 C 45.878906 -71.03125 51.828125 -69.597656 57.078125 -66.734375 C 62.335938 -63.878906 66.414062 -59.820312 69.3125 -54.5625 C 72.21875 -49.300781 73.671875 -43.265625 73.671875 -36.453125 Z M 55.375 -41.5 C 55.289062 -46.039062 53.648438 -49.675781 50.453125 -52.40625 C 47.265625 -55.144531 43.359375 -56.515625 38.734375 -56.515625 C 34.359375 -56.515625 30.675781 -55.1875 27.6875 -52.53125 C 24.707031 -49.882812 22.878906 -46.207031 22.203125 -41.5 Z M 55.375 -41.5 "/></g></g></g><g fill="#ffffff" fill-opacity="1"><g transform="translate(915.841285, 448.067714)"><g><path d="M 4.15625 -34.9375 C 4.15625 -42.175781 5.628906 -48.503906 8.578125 -53.921875 C 11.523438 -59.347656 15.601562 -63.554688 20.8125 -66.546875 C 26.03125 -69.535156 32.003906 -71.03125 38.734375 -71.03125 C 47.390625 -71.03125 54.554688 -68.863281 60.234375 -64.53125 C 65.910156 -60.195312 69.71875 -54.117188 71.65625 -46.296875 L 52.609375 -46.296875 C 51.597656 -49.328125 49.894531 -51.703125 47.5 -53.421875 C 45.101562 -55.148438 42.140625 -56.015625 38.609375 -56.015625 C 33.554688 -56.015625 29.554688 -54.179688 26.609375 -50.515625 C 23.671875 -46.859375 22.203125 -41.664062 22.203125 -34.9375 C 22.203125 -28.300781 23.671875 -23.148438 26.609375 -19.484375 C 29.554688 -15.828125 33.554688 -14 38.609375 -14 C 45.753906 -14 50.421875 -17.195312 52.609375 -23.59375 L 71.65625 -23.59375 C 69.71875 -16.019531 65.890625 -10.003906 60.171875 -5.546875 C 54.453125 -1.085938 47.304688 1.140625 38.734375 1.140625 C 32.003906 1.140625 26.03125 -0.351562 20.8125 -3.34375 C 15.601562 -6.332031 11.523438 -10.535156 8.578125 -15.953125 C 5.628906 -21.378906 4.15625 -27.707031 4.15625 -34.9375 Z M 4.15625 -34.9375 "/></g></g></g><g fill="#ffffff" fill-opacity="1"><g transform="translate(991.784487, 448.067714)"><g><path d="M 48.0625 -70.90625 C 53.363281 -70.90625 58.070312 -69.75 62.1875 -67.4375 C 66.3125 -65.125 69.53125 -61.71875 71.84375 -57.21875 C 74.15625 -52.71875 75.3125 -47.3125 75.3125 -41 L 75.3125 0 L 57.65625 0 L 57.65625 -38.609375 C 57.65625 -44.160156 56.265625 -48.425781 53.484375 -51.40625 C 50.710938 -54.394531 46.929688 -55.890625 42.140625 -55.890625 C 37.253906 -55.890625 33.398438 -54.394531 30.578125 -51.40625 C 27.765625 -48.425781 26.359375 -44.160156 26.359375 -38.609375 L 26.359375 0 L 8.703125 0 L 8.703125 -93.359375 L 26.359375 -93.359375 L 26.359375 -61.1875 C 28.628906 -64.21875 31.65625 -66.59375 35.4375 -68.3125 C 39.226562 -70.039062 43.4375 -70.90625 48.0625 -70.90625 Z M 48.0625 -70.90625 "/></g></g></g><g fill="#ffffff" fill-opacity="1"><g transform="translate(1075.170666, 448.067714)"><g><path d="M 29.265625 -55.375 L 29.265625 -21.578125 C 29.265625 -19.222656 29.832031 -17.519531 30.96875 -16.46875 C 32.101562 -15.414062 34.019531 -14.890625 36.71875 -14.890625 L 44.90625 -14.890625 L 44.90625 0 L 33.8125 0 C 18.925781 0 11.484375 -7.234375 11.484375 -21.703125 L 11.484375 -55.375 L 3.15625 -55.375 L 3.15625 -69.890625 L 11.484375 -69.890625 L 11.484375 -87.171875 L 29.265625 -87.171875 L 29.265625 -69.890625 L 44.90625 -69.890625 L 44.90625 -55.375 Z M 29.265625 -55.375 "/></g></g></g><g fill="#ffffff" fill-opacity="1"><g transform="translate(389.335767, 533.496737)"><g><path d="M 17.078125 -25.28125 L 17.078125 -22.59375 L 6.09375 -22.59375 L 6.09375 -14.078125 L 15.015625 -14.078125 L 15.015625 -11.390625 L 6.09375 -11.390625 L 6.09375 0 L 2.796875 0 L 2.796875 -25.28125 Z M 17.078125 -25.28125 "/></g></g></g><g fill="#ffffff" fill-opacity="1"><g transform="translate(410.517652, 533.496737)"><g><path d="M 6.015625 -25.28125 L 6.015625 -9.28125 C 6.015625 -7.03125 6.5625 -5.359375 7.65625 -4.265625 C 8.757812 -3.179688 10.289062 -2.640625 12.25 -2.640625 C 14.1875 -2.640625 15.703125 -3.179688 16.796875 -4.265625 C 17.898438 -5.359375 18.453125 -7.03125 18.453125 -9.28125 L 18.453125 -25.28125 L 21.765625 -25.28125 L 21.765625 -9.3125 C 21.765625 -7.21875 21.335938 -5.445312 20.484375 -4 C 19.640625 -2.5625 18.5 -1.492188 17.0625 -0.796875 C 15.625 -0.0976562 14.007812 0.25 12.21875 0.25 C 10.425781 0.25 8.8125 -0.0976562 7.375 -0.796875 C 5.9375 -1.492188 4.800781 -2.5625 3.96875 -4 C 3.132812 -5.445312 2.71875 -7.21875 2.71875 -9.3125 L 2.71875 -25.28125 Z M 6.015625 -25.28125 "/></g></g></g><g fill="#ffffff" fill-opacity="1"><g transform="translate(437.901629, 533.496737)"><g><path d="M 6.09375 -2.6875 L 14.9375 -2.6875 L 14.9375 0 L 2.796875 0 L 2.796875 -25.28125 L 6.09375 -25.28125 Z M 6.09375 -2.6875 "/></g></g></g><g fill="#ffffff" fill-opacity="1"><g transform="translate(456.47211, 533.496737)"><g><path d="M 6.09375 -2.6875 L 14.9375 -2.6875 L 14.9375 0 L 2.796875 0 L 2.796875 -25.28125 L 6.09375 -25.28125 Z M 6.09375 -2.6875 "/></g></g></g><g fill="#ffffff" fill-opacity="1"><g transform="translate(475.042591, 533.496737)"><g/></g></g><g fill="#ffffff" fill-opacity="1"><g transform="translate(487.628585, 533.496737)"><g><path d="M 10.8125 0.25 C 9.144531 0.25 7.648438 -0.0390625 6.328125 -0.625 C 5.015625 -1.21875 3.984375 -2.039062 3.234375 -3.09375 C 2.484375 -4.144531 2.09375 -5.363281 2.0625 -6.75 L 5.578125 -6.75 C 5.703125 -5.5625 6.191406 -4.5625 7.046875 -3.75 C 7.910156 -2.9375 9.164062 -2.53125 10.8125 -2.53125 C 12.382812 -2.53125 13.625 -2.921875 14.53125 -3.703125 C 15.4375 -4.492188 15.890625 -5.507812 15.890625 -6.75 C 15.890625 -7.71875 15.617188 -8.503906 15.078125 -9.109375 C 14.546875 -9.710938 13.878906 -10.171875 13.078125 -10.484375 C 12.285156 -10.796875 11.210938 -11.132812 9.859375 -11.5 C 8.191406 -11.9375 6.859375 -12.367188 5.859375 -12.796875 C 4.859375 -13.234375 4 -13.914062 3.28125 -14.84375 C 2.570312 -15.78125 2.21875 -17.035156 2.21875 -18.609375 C 2.21875 -19.984375 2.566406 -21.203125 3.265625 -22.265625 C 3.960938 -23.328125 4.945312 -24.148438 6.21875 -24.734375 C 7.488281 -25.316406 8.945312 -25.609375 10.59375 -25.609375 C 12.957031 -25.609375 14.894531 -25.015625 16.40625 -23.828125 C 17.914062 -22.640625 18.769531 -21.066406 18.96875 -19.109375 L 15.34375 -19.109375 C 15.21875 -20.078125 14.707031 -20.929688 13.8125 -21.671875 C 12.914062 -22.410156 11.734375 -22.78125 10.265625 -22.78125 C 8.890625 -22.78125 7.765625 -22.421875 6.890625 -21.703125 C 6.015625 -20.992188 5.578125 -20 5.578125 -18.71875 C 5.578125 -17.789062 5.835938 -17.035156 6.359375 -16.453125 C 6.878906 -15.878906 7.519531 -15.441406 8.28125 -15.140625 C 9.039062 -14.835938 10.113281 -14.492188 11.5 -14.109375 C 13.164062 -13.648438 14.503906 -13.195312 15.515625 -12.75 C 16.535156 -12.300781 17.40625 -11.609375 18.125 -10.671875 C 18.851562 -9.742188 19.21875 -8.484375 19.21875 -6.890625 C 19.21875 -5.660156 18.890625 -4.5 18.234375 -3.40625 C 17.585938 -2.320312 16.625 -1.441406 15.34375 -0.765625 C 14.0625 -0.0859375 12.550781 0.25 10.8125 0.25 Z M 10.8125 0.25 "/></g></g></g><g fill="#ffffff" fill-opacity="1"><g transform="translate(511.820845, 533.496737)"><g><path d="M 18.34375 -25.28125 L 18.34375 -22.59375 L 11.453125 -22.59375 L 11.453125 0 L 8.15625 0 L 8.15625 -22.59375 L 1.234375 -22.59375 L 1.234375 -25.28125 Z M 18.34375 -25.28125 "/></g></g></g><g fill="#ffffff" fill-opacity="1"><g transform="translate(534.344693, 533.496737)"><g><path d="M 17.734375 -5.625 L 6.703125 -5.625 L 4.671875 0 L 1.203125 0 L 10.328125 -25.125 L 14.140625 -25.125 L 23.25 0 L 19.765625 0 Z M 16.796875 -8.3125 L 12.21875 -21.078125 L 7.65625 -8.3125 Z M 16.796875 -8.3125 "/></g></g></g><g fill="#ffffff" fill-opacity="1"><g transform="translate(561.692409, 533.496737)"><g><path d="M 1.5625 -12.65625 C 1.5625 -15.125 2.113281 -17.34375 3.21875 -19.3125 C 4.332031 -21.28125 5.847656 -22.820312 7.765625 -23.9375 C 9.691406 -25.050781 11.832031 -25.609375 14.1875 -25.609375 C 16.9375 -25.609375 19.335938 -24.941406 21.390625 -23.609375 C 23.453125 -22.273438 24.953125 -20.390625 25.890625 -17.953125 L 21.9375 -17.953125 C 21.238281 -19.472656 20.226562 -20.644531 18.90625 -21.46875 C 17.59375 -22.289062 16.019531 -22.703125 14.1875 -22.703125 C 12.414062 -22.703125 10.828125 -22.289062 9.421875 -21.46875 C 8.023438 -20.644531 6.925781 -19.476562 6.125 -17.96875 C 5.332031 -16.457031 4.9375 -14.6875 4.9375 -12.65625 C 4.9375 -10.644531 5.332031 -8.882812 6.125 -7.375 C 6.925781 -5.863281 8.023438 -4.695312 9.421875 -3.875 C 10.828125 -3.050781 12.414062 -2.640625 14.1875 -2.640625 C 16.019531 -2.640625 17.59375 -3.046875 18.90625 -3.859375 C 20.226562 -4.671875 21.238281 -5.835938 21.9375 -7.359375 L 25.890625 -7.359375 C 24.953125 -4.941406 23.453125 -3.070312 21.390625 -1.75 C 19.335938 -0.4375 16.9375 0.21875 14.1875 0.21875 C 11.832031 0.21875 9.691406 -0.328125 7.765625 -1.421875 C 5.847656 -2.523438 4.332031 -4.054688 3.21875 -6.015625 C 2.113281 -7.972656 1.5625 -10.1875 1.5625 -12.65625 Z M 1.5625 -12.65625 "/></g></g></g><g fill="#ffffff" fill-opacity="1"><g transform="translate(592.594522, 533.496737)"><g><path d="M 16.5 0 L 6.09375 -11.53125 L 6.09375 0 L 2.796875 0 L 2.796875 -25.28125 L 6.09375 -25.28125 L 6.09375 -13.5625 L 16.53125 -25.28125 L 20.703125 -25.28125 L 9.25 -12.625 L 20.8125 0 Z M 16.5 0 "/></g></g></g><g fill="#ffffff" fill-opacity="1"><g transform="translate(617.222, 533.496737)"><g/></g></g><g fill="#ffffff" fill-opacity="1"><g transform="translate(629.808006, 533.496737)"><g><path d="M 10.8125 0.25 C 9.144531 0.25 7.648438 -0.0390625 6.328125 -0.625 C 5.015625 -1.21875 3.984375 -2.039062 3.234375 -3.09375 C 2.484375 -4.144531 2.09375 -5.363281 2.0625 -6.75 L 5.578125 -6.75 C 5.703125 -5.5625 6.191406 -4.5625 7.046875 -3.75 C 7.910156 -2.9375 9.164062 -2.53125 10.8125 -2.53125 C 12.382812 -2.53125 13.625 -2.921875 14.53125 -3.703125 C 15.4375 -4.492188 15.890625 -5.507812 15.890625 -6.75 C 15.890625 -7.71875 15.617188 -8.503906 15.078125 -9.109375 C 14.546875 -9.710938 13.878906 -10.171875 13.078125 -10.484375 C 12.285156 -10.796875 11.210938 -11.132812 9.859375 -11.5 C 8.191406 -11.9375 6.859375 -12.367188 5.859375 -12.796875 C 4.859375 -13.234375 4 -13.914062 3.28125 -14.84375 C 2.570312 -15.78125 2.21875 -17.035156 2.21875 -18.609375 C 2.21875 -19.984375 2.566406 -21.203125 3.265625 -22.265625 C 3.960938 -23.328125 4.945312 -24.148438 6.21875 -24.734375 C 7.488281 -25.316406 8.945312 -25.609375 10.59375 -25.609375 C 12.957031 -25.609375 14.894531 -25.015625 16.40625 -23.828125 C 17.914062 -22.640625 18.769531 -21.066406 18.96875 -19.109375 L 15.34375 -19.109375 C 15.21875 -20.078125 14.707031 -20.929688 13.8125 -21.671875 C 12.914062 -22.410156 11.734375 -22.78125 10.265625 -22.78125 C 8.890625 -22.78125 7.765625 -22.421875 6.890625 -21.703125 C 6.015625 -20.992188 5.578125 -20 5.578125 -18.71875 C 5.578125 -17.789062 5.835938 -17.035156 6.359375 -16.453125 C 6.878906 -15.878906 7.519531 -15.441406 8.28125 -15.140625 C 9.039062 -14.835938 10.113281 -14.492188 11.5 -14.109375 C 13.164062 -13.648438 14.503906 -13.195312 15.515625 -12.75 C 16.535156 -12.300781 17.40625 -11.609375 18.125 -10.671875 C 18.851562 -9.742188 19.21875 -8.484375 19.21875 -6.890625 C 19.21875 -5.660156 18.890625 -4.5 18.234375 -3.40625 C 17.585938 -2.320312 16.625 -1.441406 15.34375 -0.765625 C 14.0625 -0.0859375 12.550781 0.25 10.8125 0.25 Z M 10.8125 0.25 "/></g></g></g><g fill="#ffffff" fill-opacity="1"><g transform="translate(654.000266, 533.496737)"><g><path d="M 14.25 0.25 C 11.90625 0.25 9.765625 -0.296875 7.828125 -1.390625 C 5.898438 -2.492188 4.375 -4.03125 3.25 -6 C 2.125 -7.96875 1.5625 -10.1875 1.5625 -12.65625 C 1.5625 -15.125 2.125 -17.34375 3.25 -19.3125 C 4.375 -21.28125 5.898438 -22.8125 7.828125 -23.90625 C 9.765625 -25.007812 11.90625 -25.5625 14.25 -25.5625 C 16.625 -25.5625 18.773438 -25.007812 20.703125 -23.90625 C 22.640625 -22.8125 24.164062 -21.285156 25.28125 -19.328125 C 26.394531 -17.367188 26.953125 -15.144531 26.953125 -12.65625 C 26.953125 -10.164062 26.394531 -7.941406 25.28125 -5.984375 C 24.164062 -4.023438 22.640625 -2.492188 20.703125 -1.390625 C 18.773438 -0.296875 16.625 0.25 14.25 0.25 Z M 14.25 -2.609375 C 16.019531 -2.609375 17.609375 -3.019531 19.015625 -3.84375 C 20.429688 -4.664062 21.546875 -5.835938 22.359375 -7.359375 C 23.171875 -8.878906 23.578125 -10.644531 23.578125 -12.65625 C 23.578125 -14.6875 23.171875 -16.457031 22.359375 -17.96875 C 21.546875 -19.476562 20.4375 -20.644531 19.03125 -21.46875 C 17.632812 -22.289062 16.039062 -22.703125 14.25 -22.703125 C 12.457031 -22.703125 10.859375 -22.289062 9.453125 -21.46875 C 8.054688 -20.644531 6.953125 -19.476562 6.140625 -17.96875 C 5.335938 -16.457031 4.9375 -14.6875 4.9375 -12.65625 C 4.9375 -10.644531 5.335938 -8.878906 6.140625 -7.359375 C 6.953125 -5.835938 8.066406 -4.664062 9.484375 -3.84375 C 10.898438 -3.019531 12.488281 -2.609375 14.25 -2.609375 Z M 14.25 -2.609375 "/></g></g></g><g fill="#ffffff" fill-opacity="1"><g transform="translate(685.410154, 533.496737)"><g><path d="M 17.078125 -25.28125 L 17.078125 -22.59375 L 6.09375 -22.59375 L 6.09375 -14.078125 L 15.015625 -14.078125 L 15.015625 -11.390625 L 6.09375 -11.390625 L 6.09375 0 L 2.796875 0 L 2.796875 -25.28125 Z M 17.078125 -25.28125 "/></g></g></g><g fill="#ffffff" fill-opacity="1"><g transform="translate(706.592045, 533.496737)"><g><path d="M 18.34375 -25.28125 L 18.34375 -22.59375 L 11.453125 -22.59375 L 11.453125 0 L 8.15625 0 L 8.15625 -22.59375 L 1.234375 -22.59375 L 1.234375 -25.28125 Z M 18.34375 -25.28125 "/></g></g></g><g fill="#ffffff" fill-opacity="1"><g transform="translate(729.115893, 533.496737)"><g><path d="M 34.5625 -25.28125 L 27.234375 0 L 23.53125 0 L 17.65625 -20.34375 L 11.5625 0 L 7.90625 0.03125 L 0.828125 -25.28125 L 4.359375 -25.28125 L 9.859375 -3.84375 L 15.953125 -25.28125 L 19.65625 -25.28125 L 25.453125 -3.921875 L 31 -25.28125 Z M 34.5625 -25.28125 "/></g></g></g><g fill="#ffffff" fill-opacity="1"><g transform="translate(767.417, 533.496737)"><g><path d="M 17.734375 -5.625 L 6.703125 -5.625 L 4.671875 0 L 1.203125 0 L 10.328125 -25.125 L 14.140625 -25.125 L 23.25 0 L 19.765625 0 Z M 16.796875 -8.3125 L 12.21875 -21.078125 L 7.65625 -8.3125 Z M 16.796875 -8.3125 "/></g></g></g><g fill="#ffffff" fill-opacity="1"><g transform="translate(794.764716, 533.496737)"><g><path d="M 16.109375 0 L 10.078125 -10.328125 L 6.09375 -10.328125 L 6.09375 0 L 2.796875 0 L 2.796875 -25.28125 L 10.953125 -25.28125 C 12.859375 -25.28125 14.46875 -24.953125 15.78125 -24.296875 C 17.101562 -23.640625 18.09375 -22.753906 18.75 -21.640625 C 19.40625 -20.535156 19.734375 -19.269531 19.734375 -17.84375 C 19.734375 -16.101562 19.226562 -14.566406 18.21875 -13.234375 C 17.21875 -11.910156 15.710938 -11.03125 13.703125 -10.59375 L 20.0625 0 Z M 6.09375 -12.984375 L 10.953125 -12.984375 C 12.742188 -12.984375 14.082031 -13.421875 14.96875 -14.296875 C 15.863281 -15.179688 16.3125 -16.363281 16.3125 -17.84375 C 16.3125 -19.34375 15.867188 -20.503906 14.984375 -21.328125 C 14.109375 -22.148438 12.765625 -22.5625 10.953125 -22.5625 L 6.09375 -22.5625 Z M 6.09375 -12.984375 "/></g></g></g><g fill="#ffffff" fill-opacity="1"><g transform="translate(819.718649, 533.496737)"><g><path d="M 6.09375 -22.59375 L 6.09375 -14.140625 L 15.296875 -14.140625 L 15.296875 -11.421875 L 6.09375 -11.421875 L 6.09375 -2.71875 L 16.390625 -2.71875 L 16.390625 0 L 2.796875 0 L 2.796875 -25.3125 L 16.390625 -25.3125 L 16.390625 -22.59375 Z M 6.09375 -22.59375 "/></g></g></g><g fill="#ffffff" fill-opacity="1"><g transform="translate(841.226948, 533.496737)"><g/></g></g><g fill="#ffffff" fill-opacity="1"><g transform="translate(853.812931, 533.496737)"><g><path d="M 6.09375 -22.59375 L 6.09375 -14.140625 L 15.296875 -14.140625 L 15.296875 -11.421875 L 6.09375 -11.421875 L 6.09375 -2.71875 L 16.390625 -2.71875 L 16.390625 0 L 2.796875 0 L 2.796875 -25.3125 L 16.390625 -25.3125 L 16.390625 -22.59375 Z M 6.09375 -22.59375 "/></g></g></g><g fill="#ffffff" fill-opacity="1"><g transform="translate(875.32123, 533.496737)"><g><path d="M 22.671875 0 L 19.359375 0 L 6.09375 -20.125 L 6.09375 0 L 2.796875 0 L 2.796875 -25.3125 L 6.09375 -25.3125 L 19.359375 -5.21875 L 19.359375 -25.3125 L 22.671875 -25.3125 Z M 22.671875 0 "/></g></g></g><g fill="#ffffff" fill-opacity="1"><g transform="translate(903.72075, 533.496737)"><g><path d="M 21.9375 -17.953125 C 21.238281 -19.421875 20.222656 -20.5625 18.890625 -21.375 C 17.566406 -22.1875 16.019531 -22.59375 14.25 -22.59375 C 12.488281 -22.59375 10.898438 -22.1875 9.484375 -21.375 C 8.066406 -20.5625 6.953125 -19.398438 6.140625 -17.890625 C 5.335938 -16.378906 4.9375 -14.632812 4.9375 -12.65625 C 4.9375 -10.675781 5.335938 -8.9375 6.140625 -7.4375 C 6.953125 -5.9375 8.066406 -4.78125 9.484375 -3.96875 C 10.898438 -3.15625 12.488281 -2.75 14.25 -2.75 C 16.71875 -2.75 18.75 -3.488281 20.34375 -4.96875 C 21.9375 -6.445312 22.867188 -8.441406 23.140625 -10.953125 L 13.0625 -10.953125 L 13.0625 -13.640625 L 26.65625 -13.640625 L 26.65625 -11.09375 C 26.457031 -9.019531 25.800781 -7.117188 24.6875 -5.390625 C 23.582031 -3.660156 22.125 -2.289062 20.3125 -1.28125 C 18.5 -0.28125 16.476562 0.21875 14.25 0.21875 C 11.90625 0.21875 9.765625 -0.328125 7.828125 -1.421875 C 5.898438 -2.523438 4.375 -4.054688 3.25 -6.015625 C 2.125 -7.972656 1.5625 -10.1875 1.5625 -12.65625 C 1.5625 -15.125 2.125 -17.34375 3.25 -19.3125 C 4.375 -21.28125 5.898438 -22.8125 7.828125 -23.90625 C 9.765625 -25.007812 11.90625 -25.5625 14.25 -25.5625 C 16.9375 -25.5625 19.3125 -24.894531 21.375 -23.5625 C 23.445312 -22.238281 24.953125 -20.367188 25.890625 -17.953125 Z M 21.9375 -17.953125 "/></g></g></g><g fill="#ffffff" fill-opacity="1"><g transform="translate(934.840484, 533.496737)"><g><path d="M 6.09375 -25.28125 L 6.09375 0 L 2.796875 0 L 2.796875 -25.28125 Z M 6.09375 -25.28125 "/></g></g></g><g fill="#ffffff" fill-opacity="1"><g transform="translate(946.66484, 533.496737)"><g><path d="M 22.671875 0 L 19.359375 0 L 6.09375 -20.125 L 6.09375 0 L 2.796875 0 L 2.796875 -25.3125 L 6.09375 -25.3125 L 19.359375 -5.21875 L 19.359375 -25.3125 L 22.671875 -25.3125 Z M 22.671875 0 "/></g></g></g><g fill="#ffffff" fill-opacity="1"><g transform="translate(975.064359, 533.496737)"><g><path d="M 6.09375 -22.59375 L 6.09375 -14.140625 L 15.296875 -14.140625 L 15.296875 -11.421875 L 6.09375 -11.421875 L 6.09375 -2.71875 L 16.390625 -2.71875 L 16.390625 0 L 2.796875 0 L 2.796875 -25.3125 L 16.390625 -25.3125 L 16.390625 -22.59375 Z M 6.09375 -22.59375 "/></g></g></g><g fill="#ffffff" fill-opacity="1"><g transform="translate(996.572659, 533.496737)"><g><path d="M 6.09375 -22.59375 L 6.09375 -14.140625 L 15.296875 -14.140625 L 15.296875 -11.421875 L 6.09375 -11.421875 L 6.09375 -2.71875 L 16.390625 -2.71875 L 16.390625 0 L 2.796875 0 L 2.796875 -25.3125 L 16.390625 -25.3125 L 16.390625 -22.59375 Z M 6.09375 -22.59375 "/></g></g></g><g fill="#ffffff" fill-opacity="1"><g transform="translate(1018.080958, 533.496737)"><g><path d="M 16.109375 0 L 10.078125 -10.328125 L 6.09375 -10.328125 L 6.09375 0 L 2.796875 0 L 2.796875 -25.28125 L 10.953125 -25.28125 C 12.859375 -25.28125 14.46875 -24.953125 15.78125 -24.296875 C 17.101562 -23.640625 18.09375 -22.753906 18.75 -21.640625 C 19.40625 -20.535156 19.734375 -19.269531 19.734375 -17.84375 C 19.734375 -16.101562 19.226562 -14.566406 18.21875 -13.234375 C 17.21875 -11.910156 15.710938 -11.03125 13.703125 -10.59375 L 20.0625 0 Z M 6.09375 -12.984375 L 10.953125 -12.984375 C 12.742188 -12.984375 14.082031 -13.421875 14.96875 -14.296875 C 15.863281 -15.179688 16.3125 -16.363281 16.3125 -17.84375 C 16.3125 -19.34375 15.867188 -20.503906 14.984375 -21.328125 C 14.109375 -22.148438 12.765625 -22.5625 10.953125 -22.5625 L 6.09375 -22.5625 Z M 6.09375 -12.984375 "/></g></g></g><g fill="#ffffff" fill-opacity="1"><g transform="translate(1043.034891, 533.496737)"><g><path d="M 3.84375 0.21875 C 3.21875 0.21875 2.6875 0 2.25 -0.4375 C 1.8125 -0.875 1.59375 -1.40625 1.59375 -2.03125 C 1.59375 -2.65625 1.8125 -3.1875 2.25 -3.625 C 2.6875 -4.0625 3.21875 -4.28125 3.84375 -4.28125 C 4.445312 -4.28125 4.957031 -4.0625 5.375 -3.625 C 5.800781 -3.1875 6.015625 -2.65625 6.015625 -2.03125 C 6.015625 -1.40625 5.800781 -0.875 5.375 -0.4375 C 4.957031 0 4.445312 0.21875 3.84375 0.21875 Z M 3.84375 0.21875 "/></g></g></g></svg>